HIERARCHY
ROOT Hips
{
	OFFSET 204.544800 91.059433 303.203186
	CHANNELS 6 Xposition Yposition Zposition Zrotation Yrotation Xrotation 
	JOINT LeftUpLeg
	{
		OFFSET 0.103457 1.857840 10.548497
		CHANNELS 3 Zrotation Yrotation Xrotation
		JOINT LeftLeg
		{
			OFFSET 43.499996 -0.000046 -0.000021
			CHANNELS 3 Zrotation Yrotation Xrotation
			JOINT LeftFoot
			{
				OFFSET 42.372200 0.000019 0.000010
				CHANNELS 3 Zrotation Yrotation Xrotation
				JOINT LeftToe
				{
					OFFSET 17.299992 -0.000004 -0.000006
					CHANNELS 3 Zrotation Yrotation Xrotation
					End Site
					{
						OFFSET 0.000000 0.000000 0.000000
					}
				}
			}
		}
	}
	JOINT RightUpLeg
	{
		OFFSET 0.103462 1.857830 -10.548500
		CHANNELS 3 Zrotation Yrotation Xrotation
		JOINT RightLeg
		{
			OFFSET 43.500050 -0.000008 0.000013
			CHANNELS 3 Zrotation Yrotation Xrotation
			JOINT RightFoot
			{
				OFFSET 42.372265 -0.000008 0.000010
				CHANNELS 3 Zrotation Yrotation Xrotation
				JOINT RightToe
				{
					OFFSET 17.299980 -0.000009 0.000011
					CHANNELS 3 Zrotation Yrotation Xrotation
					End Site
					{
						OFFSET 0.000000 0.000000 0.000000
					}
				}
			}
		}
	}
	JOINT Spine
	{
		OFFSET 6.901966 -2.603740 0.000004
		CHANNELS 3 Zrotation Yrotation Xrotation
		JOINT Spine1
		{
			OFFSET 12.588106 0.000010 -0.000001
			CHANNELS 3 Zrotation Yrotation Xrotation
			JOINT Spine2
			{
				OFFSET 12.343197 0.000001 -0.000010
				CHANNELS 3 Zrotation Yrotation Xrotation
				JOINT Neck
				{
					OFFSET 25.832893 -0.000006 0.000008
					CHANNELS 3 Zrotation Yrotation Xrotation
					JOINT Head
					{
						OFFSET 11.766615 -0.000006 -0.000000
						CHANNELS 3 Zrotation Yrotation Xrotation
						End Site
						{
							OFFSET 0.000000 0.000000 0.000000
						}
					}
				}
				JOINT LeftShoulder
				{
					OFFSET 19.745903 -1.480366 6.000110
					CHANNELS 3 Zrotation Yrotation Xrotation
					JOINT LeftArm
					{
						OFFSET 11.284130 -0.000010 -0.000024
						CHANNELS 3 Zrotation Yrotation Xrotation
						JOINT LeftForeArm
						{
							OFFSET 33.000046 0.000022 0.000031
							CHANNELS 3 Zrotation Yrotation Xrotation
							JOINT LeftHand
							{
								OFFSET 25.200022 0.000011 0.000002
								CHANNELS 3 Zrotation Yrotation Xrotation
								End Site
								{
									OFFSET 0.000000 0.000000 0.000000
								}
							}
						}
					}
				}
				JOINT RightShoulder
				{
					OFFSET 19.746103 -1.480371 -6.000066
					CHANNELS 3 Zrotation Yrotation Xrotation
					JOINT RightArm
					{
						OFFSET 11.284146 -0.000005 -0.000007
						CHANNELS 3 Zrotation Yrotation Xrotation
						JOINT RightForeArm
						{
							OFFSET 33.000076 0.000011 0.000008
							CHANNELS 3 Zrotation Yrotation Xrotation
							JOINT RightHand
							{
								OFFSET 25.199783 0.000146 0.000422
								CHANNELS 3 Zrotation Yrotation Xrotation
								End Site
								{
									OFFSET 0.000000 0.000000 0.000000
								}
							}
						}
					}
				}
			}
		}
	}
}
MOTION
Frames: 8
Frame Time: 0.033333
-294.361908 89.853081 -56.468281 91.417998 5.304943 -140.802984 161.883953 -23.060395 146.332732 -37.316240 1.675204 -23.496344 73.234654 11.779186 -16.284223 21.454551 0.003096 0.000001 164.395167 -6.066300 174.486130 -21.199770 -0.374576 0.079159 84.160635 1.054700 5.482958 21.454560 -0.003108 -0.000018 6.196117 1.299999 -1.862871 2.337425 2.636316 -3.700763 2.019682 2.614068 -3.716591 9.359818 0.390812 -22.659347 -26.702548 2.238433 -24.990979 -163.060685 -83.608489 -18.697737 -35.509412 62.215264 24.159603 -31.713238 -9.946631 0.936133 9.046462 -3.775915 3.285340 -160.923710 72.765304 20.965798 7.808154 -59.506794 -23.594598 -34.561413 12.785062 -1.208712 7.812366 3.007398 -2.839528 
-295.141113 89.752701 -56.788158 91.253308 5.094064 -140.897951 161.501162 -22.886101 148.924215 -39.527695 1.573427 -21.282023 73.648625 9.910332 -17.467548 21.454555 0.003098 -0.000001 163.812866 -5.326515 173.777266 -21.861171 -0.123303 0.304050 84.368949 1.007557 6.072553 21.454555 -0.003105 -0.000018 6.236955 1.328778 -1.827273 2.419080 2.694451 -3.628045 2.101284 2.672639 -3.644237 9.604562 0.303051 -23.012640 -26.762908 2.160677 -25.356816 -164.311361 -83.709508 -17.433476 -32.857192 61.903207 26.068981 -30.775330 -9.616424 0.895954 9.511515 -3.304575 3.297554 -161.236683 72.920616 20.642141 7.874316 -59.408726 -23.600899 -34.708078 12.747225 -1.209561 7.673225 3.166094 -2.924892 
-295.973511 89.656036 -57.165031 91.108208 4.839345 -141.025019 161.297444 -22.932299 151.942148 -41.933605 1.358333 -18.062560 74.050623 7.289327 -18.714187 21.454550 0.003098 0.000002 163.308758 -4.565502 173.227340 -22.436299 -0.020171 0.412693 84.489447 1.041061 6.632819 21.454560 -0.003112 -0.000018 6.290790 1.336953 -1.789439 2.527419 2.711688 -3.550922 2.209611 2.690347 -3.567215 9.768602 0.256882 -23.265359 -26.843644 2.056164 -25.595932 -164.082113 -83.738939 -17.664777 -29.970583 61.689292 27.481498 -30.181469 -9.079474 0.849308 9.138800 -2.958789 3.673510 -160.893698 73.018977 20.993486 7.690216 -59.315125 -23.689808 -35.057291 12.769540 -1.218931 7.631848 3.184380 -2.876720 
-296.875885 89.564163 -57.649021 90.974042 4.572075 -141.238039 161.090640 -22.932596 155.819988 -44.351820 0.968616 -14.588803 74.498902 4.597390 -19.634574 21.454553 0.003086 -0.000001 162.880901 -3.735792 172.918397 -22.884791 -0.036696 0.320167 84.542620 1.218793 7.184649 21.454555 -0.003097 -0.000014 6.343944 1.337951 -1.731919 2.635191 2.709769 -3.434587 2.317323 2.689129 -3.450872 9.930643 0.048728 -23.534349 -26.812756 2.245881 -25.998794 -162.651680 -83.641001 -19.110584 -27.117664 61.572099 29.191730 -29.935736 -8.898579 0.832777 9.018394 -2.737031 3.960960 -160.505989 73.164870 21.390119 7.649905 -59.304757 -23.563791 -35.644100 12.800220 -1.234432 7.646275 3.105973 -3.246247 
-297.866913 89.469093 -58.193279 90.877053 4.346928 -141.538950 161.216684 -23.162094 160.469680 -46.273278 0.428823 -9.803633 75.365748 1.077522 -20.354845 21.454550 0.003097 0.000000 162.504612 -2.881098 172.654137 -23.149849 -0.059774 0.144555 84.479953 1.490546 7.870729 21.454555 -0.003110 -0.000018 6.392782 1.338094 -1.653610 2.734679 2.714007 -3.276711 2.416758 2.694324 -3.293029 10.236409 -0.268271 -23.826348 -26.811011 2.704654 -26.569325 -161.473622 -83.547304 -20.301665 -24.329825 61.571266 31.343123 -29.892043 -9.105763 0.845576 9.047604 -2.596717 3.606446 -160.748816 73.421781 21.137299 7.873975 -59.316901 -23.616159 -36.349020 12.945203 -1.260405 7.714809 3.225449 -3.762508 
-298.920288 89.368156 -58.807892 90.791177 4.192306 -141.959963 161.450523 -23.385808 165.256126 -47.441814 0.363072 -4.336669 76.111059 -2.871735 -20.782147 21.454555 0.003088 -0.000001 162.135017 -1.996306 172.683752 -23.262572 -0.145230 -0.263003 84.350924 1.961460 8.695807 21.454560 -0.003110 -0.000018 6.416654 1.342862 -1.539852 2.785025 2.721568 -3.048444 2.467036 2.703262 -3.064811 10.755858 -0.653935 -24.353793 -26.878437 3.282091 -27.463472 -162.688795 -83.533159 -19.074012 -21.260096 61.672797 33.429664 -30.035269 -9.312469 0.861847 9.129527 -2.735403 3.099706 -161.339983 73.701436 20.526868 8.371831 -59.179027 -24.175251 -37.179568 13.193268 -1.296495 7.589791 3.433996 -3.863500 
-300.087585 89.193657 -59.502720 90.738728 4.157519 -142.385989 161.873407 -23.582198 170.577718 -47.538704 0.060423 1.395400 77.586578 -6.676933 -20.589983 21.454555 0.003093 0.000002 161.596047 -1.091403 172.943163 -23.512366 -0.225967 -0.807481 84.275519 2.554982 9.648509 21.454553 -0.003111 -0.000017 6.429689 1.368200 -1.419212 2.813402 2.769743 -2.806219 2.495302 2.752881 -2.822881 11.265413 -1.311311 -25.282539 -26.747251 4.129603 -28.913099 -164.812396 -83.520646 -16.928388 -18.260048 61.824393 35.050700 -30.401052 -9.423570 0.876090 9.160948 -2.921320 2.947409 -161.452312 73.975907 20.408481 8.605894 -58.924144 -24.744667 -37.950303 13.369750 -1.326919 7.352014 3.636908 -3.647301 
-301.326996 89.036148 -60.286709 90.589414 4.083983 -142.910042 162.178539 -23.340300 176.232541 -46.711975 -0.167784 6.406499 78.508168 -10.070365 -20.470581 21.454560 0.003090 0.000001 161.031190 0.019698 173.282514 -23.623003 -0.255206 -1.490428 84.124558 3.267003 10.661245 21.454562 -0.003116 -0.000019 6.443323 1.367756 -1.315336 2.843272 2.766712 -2.598080 2.525134 2.751122 -2.614743 11.511527 -1.753293 -26.331003 -26.472326 4.903218 -30.398003 -164.031173 -83.508222 -17.717811 -15.784058 62.188080 36.157785 -30.972090 -9.605592 0.899076 9.166512 -2.691289 3.173812 -161.383682 74.173115 20.476595 8.375232 -58.549365 -25.032606 -38.699182 13.479087 -1.352830 7.150035 3.810477 -3.699070 
